<svg version="1.1" id="Layer_1" xmlns="http://www.w3.org/2000/svg" xmlns:xlink="http://www.w3.org/1999/xlink" x="0px" y="0px"
	 width="100%" viewBox="0 0 1024 1024" enable-background="new 0 0 1024 1024" xml:space="preserve">
<path fill="white" opacity="1.000000" stroke="none" 
	d="
M629.584717,766.814819 
	C608.504333,772.706299 587.427307,776.481934 566.126526,779.074158 
	C563.985657,779.334656 561.804077,779.313416 559.640808,779.326721 
	C555.357483,779.353027 553.205933,776.867310 552.791870,772.905701 
	C552.406250,769.216431 555.463013,766.034424 559.550293,765.694336 
	C597.135986,762.567017 633.195190,752.970947 668.188354,739.347778 
	C692.303650,729.959412 715.614624,718.855469 735.505676,701.780090 
	C738.798950,698.953064 741.831421,695.843445 744.147461,692.136597 
	C748.707886,684.837280 747.668396,679.858032 740.495239,675.220581 
	C732.136108,669.816406 722.639832,668.101929 712.965515,667.371887 
	C692.148926,665.801025 671.827026,668.876648 651.783325,674.311523 
	C649.749512,674.863037 647.756042,675.742920 645.516846,674.507263 
	C640.880981,671.949280 640.548035,667.041077 644.978394,663.015747 
	C655.584534,653.379150 666.259644,643.818542 676.854431,634.169617 
	C695.762390,616.949402 713.204529,598.421326 727.258423,576.932556 
	C732.660706,568.672241 737.108765,559.976074 739.168335,550.173584 
	C741.392761,539.586792 737.477173,534.608398 726.797363,534.323120 
	C709.573608,533.862915 694.068909,539.726685 679.144653,547.322998 
	C608.060059,583.504395 553.332092,636.215698 517.897278,708.123169 
	C509.186340,725.800171 502.995789,744.404968 500.343597,764.059021 
	C499.699768,768.830261 496.991089,770.910828 492.564240,770.315063 
	C488.639557,769.786865 486.837494,766.932007 487.339600,762.235657 
	C490.520050,732.487549 502.394257,705.848816 516.858154,680.182556 
	C527.189514,661.849365 539.240356,644.685486 552.981995,628.725647 
	C553.699951,627.891785 554.751587,627.171387 554.479187,625.493408 
	C543.926331,627.746948 533.456055,630.182251 522.805542,631.739258 
	C509.623596,633.666260 496.381805,635.203003 483.089691,635.237305 
	C410.090179,635.425781 337.089966,635.361511 264.090027,635.311401 
	C261.979614,635.309937 258.786316,636.578979 258.042786,633.526489 
	C257.191040,630.029602 256.937042,626.168030 258.322205,622.720947 
	C258.987701,621.064880 261.322968,621.658875 262.925140,621.701355 
	C271.620178,621.931885 280.212341,621.258362 288.609741,618.894775 
	C310.758759,612.660522 315.415161,600.687744 315.477631,584.263062 
	C315.828033,492.097931 315.865906,399.929840 315.480042,307.764954 
	C315.392303,286.814880 306.821136,273.637512 278.522858,268.361084 
	C273.248383,267.377625 267.931458,267.284485 262.619934,267.043976 
	C258.969330,266.878662 257.419373,265.598511 257.546417,261.589386 
	C257.797119,253.678680 257.547821,253.664047 265.400330,253.664337 
	C330.233643,253.666763 395.067963,253.457520 459.899841,253.765869 
	C492.721924,253.921982 525.372192,256.526001 556.917175,266.540253 
	C625.109619,288.188599 665.533447,334.591766 679.434265,404.539551 
	C683.023438,422.600037 684.193604,440.846069 683.145691,459.141327 
	C681.679382,484.742432 675.897400,509.432068 665.366699,532.914062 
	C664.685913,534.432068 664.060791,535.976929 663.470520,537.532349 
	C663.306274,537.965332 663.359863,538.481018 663.257202,539.537781 
	C669.387634,536.680969 675.152649,533.873718 681.014648,531.286377 
	C696.058411,524.646484 711.498291,520.070923 728.268311,520.573120 
	C748.150513,521.168396 755.150513,535.429504 752.785706,550.577271 
	C749.529419,571.434631 737.583923,587.989868 724.869873,603.945312 
	C711.332397,620.934143 695.651611,635.899414 679.539246,650.411438 
	C678.072693,651.732361 676.596497,653.042542 674.371277,655.031006 
	C682.846497,654.350525 690.195190,653.458679 697.564331,653.230896 
	C713.503784,652.738037 729.197266,654.253723 743.745361,661.473145 
	C761.825684,670.445435 765.655579,686.580444 753.387817,702.710022 
	C743.175110,716.137573 729.065552,724.849854 714.648438,732.941528 
	C687.935974,747.934265 659.375854,758.390564 629.584717,766.814819 
M554.716003,313.787262 
	C524.623596,288.538147 488.788086,279.306091 450.664246,277.554077 
	C429.900085,276.599823 409.042542,276.759369 388.252014,278.342560 
	C382.070251,278.813293 379.355621,281.253540 379.354492,287.297577 
	C379.335114,392.254181 379.356628,497.210754 379.302246,602.167358 
	C379.300507,605.513489 380.181396,607.093872 383.762085,607.943542 
	C405.865417,613.188354 428.167450,615.750488 450.929901,614.995544 
	C476.023682,614.163391 500.061218,608.919067 522.856018,598.582092 
	C562.773743,580.480347 590.520386,551.365540 602.155396,508.379395 
	C610.655396,476.975800 611.747559,445.138550 606.720581,413.034698 
	C600.657593,374.314545 585.148254,340.543396 554.716003,313.787262 
z"/>
</svg>